<svg xmlns="http://www.w3.org/2000/svg" viewBox="0 0 100 100">
<!-- Girl with bun + round glasses -->
<circle cx="50" cy="55" r="32" fill="#fff" stroke="#222" stroke-width="2.5"/>
<path d="M18 48c0-20 14-32 32-32s32 12 32 32" fill="#222"/>
<ellipse cx="50" cy="13" rx="9" ry="8" fill="#222"/>
<ellipse cx="18" cy="56" rx="5" ry="6" fill="#fff" stroke="#222" stroke-width="2"/>
<ellipse cx="82" cy="56" rx="5" ry="6" fill="#fff" stroke="#222" stroke-width="2"/>
<circle cx="37" cy="55" r="10" stroke="#222" stroke-width="2.5" fill="none"/>
<circle cx="63" cy="55" r="10" stroke="#222" stroke-width="2.5" fill="none"/>
<line x1="47" y1="55" x2="53" y2="55" stroke="#222" stroke-width="2.5"/>
<line x1="27" y1="53" x2="19" y2="51" stroke="#222" stroke-width="2"/>
<line x1="73" y1="53" x2="81" y2="51" stroke="#222" stroke-width="2"/>
<circle cx="37" cy="55" r="3" fill="#222"/>
<circle cx="63" cy="55" r="3" fill="#222"/>
<path d="M47 66c1 2.5 5 2.5 6 0" stroke="#222" stroke-width="1.8" fill="none" stroke-linecap="round"/>
<path d="M38 74c4 5 16 5 20 0" stroke="#222" stroke-width="2.2" fill="none" stroke-linecap="round"/>
</svg>