<svg xmlns="http://www.w3.org/2000/svg" viewBox="0 0 100 100">
<!-- Boy with messy hair, big ears, rosy cheeks, smiling -->
<circle cx="50" cy="56" r="28" fill="#fff" stroke="#222" stroke-width="2.5"/>
<path d="M22 46c0-16 12-28 28-28s28 12 28 28" fill="#222"/>
<path d="M30 18c6-4 12-6 18-5M52 13c6-1 12 1 18 5" stroke="#222" stroke-width="3" fill="#222"/>
<ellipse cx="20" cy="58" rx="6" ry="7" fill="#fff" stroke="#222" stroke-width="2"/>
<ellipse cx="80" cy="58" rx="6" ry="7" fill="#fff" stroke="#222" stroke-width="2"/>
<circle cx="38" cy="54" r="2.5" fill="#222"/>
<circle cx="62" cy="54" r="2.5" fill="#222"/>
<!-- Rosy cheeks -->
<circle cx="30" cy="64" r="6" fill="#222" opacity="0.15"/>
<circle cx="70" cy="64" r="6" fill="#222" opacity="0.15"/>
<path d="M47 62c1 2 5 2 6 0" stroke="#222" stroke-width="1.5" fill="none" stroke-linecap="round"/>
<path d="M40 70c4 5 16 5 20 0" stroke="#222" stroke-width="2" fill="none" stroke-linecap="round"/>
</svg>