<svg xmlns="http://www.w3.org/2000/svg" viewBox="0 0 100 100">
<!-- Boy with round glasses, messy hair, smiling -->
<circle cx="50" cy="56" r="29" fill="#fff" stroke="#222" stroke-width="2.5"/>
<path d="M21 46c0-18 13-30 29-30s29 12 29 30" fill="#222"/>
<path d="M30 16c4-2 10-4 16-3M54 13c6-1 12 1 16 3" stroke="#222" stroke-width="3" fill="#222"/>
<ellipse cx="21" cy="58" rx="4" ry="5" fill="#fff" stroke="#222" stroke-width="2"/>
<ellipse cx="79" cy="58" rx="4" ry="5" fill="#fff" stroke="#222" stroke-width="2"/>
<circle cx="38" cy="54" r="9" stroke="#222" stroke-width="2.5" fill="none"/>
<circle cx="62" cy="54" r="9" stroke="#222" stroke-width="2.5" fill="none"/>
<line x1="47" y1="54" x2="53" y2="54" stroke="#222" stroke-width="2.5"/>
<circle cx="38" cy="54" r="2.5" fill="#222"/>
<circle cx="62" cy="54" r="2.5" fill="#222"/>
<path d="M45 66c2 3 8 3 10 0" stroke="#222" stroke-width="2" fill="none" stroke-linecap="round"/>
<path d="M40 72c4 4 16 4 20 0" stroke="#222" stroke-width="2" fill="none" stroke-linecap="round"/>
</svg>