<svg xmlns="http://www.w3.org/2000/svg" viewBox="0 0 100 100">
<!-- Older guy, balding, rectangular glasses, mustache, goatee -->
<ellipse cx="50" cy="54" rx="32" ry="34" fill="#fff" stroke="#222" stroke-width="2.5"/>
<path d="M26 36c4-4 8-6 10-6" fill="#222" stroke="#222" stroke-width="3" stroke-linecap="round"/>
<path d="M64 30c2 0 6 2 10 6" fill="#222" stroke="#222" stroke-width="3" stroke-linecap="round"/>
<ellipse cx="18" cy="56" rx="6" ry="7" fill="#fff" stroke="#222" stroke-width="2"/>
<ellipse cx="82" cy="56" rx="6" ry="7" fill="#fff" stroke="#222" stroke-width="2"/>
<rect x="28" y="46" width="18" height="13" rx="3" stroke="#222" stroke-width="2.5" fill="none"/>
<rect x="54" y="46" width="18" height="13" rx="3" stroke="#222" stroke-width="2.5" fill="none"/>
<line x1="46" y1="52" x2="54" y2="52" stroke="#222" stroke-width="2.5"/>
<circle cx="37" cy="52" r="2" fill="#222"/>
<circle cx="63" cy="52" r="2" fill="#222"/>
<path d="M30 44l14-2" stroke="#222" stroke-width="2" fill="none" stroke-linecap="round"/>
<path d="M56 42l14 2" stroke="#222" stroke-width="2" fill="none" stroke-linecap="round"/>
<path d="M40 66h20" stroke="#222" stroke-width="2.5" fill="none" stroke-linecap="round"/>
<path d="M44 72c2 6 4 10 6 10s4-4 6-10" fill="#222" stroke="#222" stroke-width="1.5"/>
<path d="M42 78h16" stroke="#222" stroke-width="2" fill="none" stroke-linecap="round"/>
</svg>