<svg xmlns="http://www.w3.org/2000/svg" viewBox="0 0 100 100">
<!-- Boy with spiky short hair, big ears, big open smile -->
<circle cx="50" cy="56" r="29" fill="#fff" stroke="#222" stroke-width="2.5"/>
<path d="M21 48c1-16 13-28 29-28s28 12 29 28" fill="#222"/>
<path d="M32 20c4-4 8-6 12-5M56 15c4-1 8 1 12 5" stroke="#222" stroke-width="3" fill="#222" stroke-linecap="round"/>
<ellipse cx="19" cy="60" rx="6" ry="7" fill="#fff" stroke="#222" stroke-width="2"/>
<ellipse cx="81" cy="60" rx="6" ry="7" fill="#fff" stroke="#222" stroke-width="2"/>
<path d="M34 50c2-2 6-2 8 0" stroke="#222" stroke-width="1.8" fill="none" stroke-linecap="round"/>
<path d="M58 50c2-2 6-2 8 0" stroke="#222" stroke-width="1.8" fill="none" stroke-linecap="round"/>
<circle cx="38" cy="55" r="2.5" fill="#222"/>
<circle cx="62" cy="55" r="2.5" fill="#222"/>
<path d="M47 64c1 2 5 2 6 0" stroke="#222" stroke-width="1.5" fill="none" stroke-linecap="round"/>
<!-- Big open smile -->
<path d="M34 72c6 8 20 8 32 0" stroke="#222" stroke-width="2.2" fill="none" stroke-linecap="round"/>
<path d="M38 72c4 4 16 4 24 0" stroke="#222" stroke-width="0" fill="#222" opacity="0.08"/>
</svg>