<svg xmlns="http://www.w3.org/2000/svg" viewBox="0 0 100 100">
<!-- Boy with messy/curly top hair -->
<circle cx="50" cy="56" r="30" fill="#fff" stroke="#222" stroke-width="2.5"/>
<path d="M20 48c0-18 13-30 30-30s30 12 30 30" fill="#222"/>
<path d="M42 14c-6-4-2-12 6-10 4-6 14-6 16 0 8-2 12 6 6 10 6 2 6 8 2 10" fill="#222"/>
<ellipse cx="20" cy="58" rx="4" ry="5" fill="#fff" stroke="#222" stroke-width="2"/>
<ellipse cx="80" cy="58" rx="4" ry="5" fill="#fff" stroke="#222" stroke-width="2"/>
<circle cx="38" cy="54" r="2.5" fill="#222"/>
<circle cx="62" cy="54" r="2.5" fill="#222"/>
<path d="M36 48c2-2 5-2 7 0" stroke="#222" stroke-width="1.8" fill="none" stroke-linecap="round"/>
<path d="M57 48c2-2 5-2 7 0" stroke="#222" stroke-width="1.8" fill="none" stroke-linecap="round"/>
<path d="M47 63c1 2 5 2 6 0" stroke="#222" stroke-width="1.5" fill="none" stroke-linecap="round"/>
<path d="M42 70c3 3 13 3 16 0" stroke="#222" stroke-width="2" fill="none" stroke-linecap="round"/>
</svg>