<svg xmlns="http://www.w3.org/2000/svg" viewBox="0 0 100 100">
<!-- Boy with headphones, round sunglasses, spiky hair -->
<circle cx="50" cy="56" r="28" fill="#fff" stroke="#222" stroke-width="2.5"/>
<path d="M22 48c1-16 12-26 28-26s27 10 28 26" fill="#222"/>
<path d="M36 22c4-4 8-4 12-2M52 20c4-2 8-2 12 2" stroke="#222" stroke-width="3" fill="#222" stroke-linecap="round"/>
<!-- Headphones -->
<path d="M16 54c0-6 2-10 6-10" stroke="#222" stroke-width="3" fill="none" stroke-linecap="round"/>
<path d="M84 54c0-6-2-10-6-10" stroke="#222" stroke-width="3" fill="none" stroke-linecap="round"/>
<rect x="10" y="50" width="12" height="16" rx="6" fill="#fff" stroke="#222" stroke-width="2.5"/>
<rect x="78" y="50" width="12" height="16" rx="6" fill="#fff" stroke="#222" stroke-width="2.5"/>
<!-- Round sunglasses filled -->
<circle cx="38" cy="54" r="9" fill="#222" stroke="#222" stroke-width="2"/>
<circle cx="62" cy="54" r="9" fill="#222" stroke="#222" stroke-width="2"/>
<line x1="47" y1="54" x2="53" y2="54" stroke="#222" stroke-width="2.5"/>
<path d="M47 68c1 2 5 2 6 0" stroke="#222" stroke-width="2" fill="none" stroke-linecap="round"/>
</svg>