<svg xmlns="http://www.w3.org/2000/svg" viewBox="0 0 100 100">
<!-- Boy with sunglasses, spiky hair, mustache -->
<circle cx="50" cy="58" r="28" fill="#fff" stroke="#222" stroke-width="2.5"/>
<path d="M22 48c0-18 12-30 28-30s28 12 28 30" fill="#222"/>
<path d="M28 18c6-6 10-8 14-8M44 10c4-4 10-4 14 0M58 10c4 0 8 2 14 8" stroke="#222" stroke-width="3" fill="#222" stroke-linecap="round"/>
<rect x="28" y="50" width="18" height="12" rx="2" fill="#222" stroke="#222" stroke-width="2"/>
<rect x="54" y="50" width="18" height="12" rx="2" fill="#222" stroke="#222" stroke-width="2"/>
<line x1="46" y1="56" x2="54" y2="56" stroke="#222" stroke-width="2.5"/>
<line x1="28" y1="54" x2="22" y2="52" stroke="#222" stroke-width="2"/>
<line x1="72" y1="54" x2="78" y2="52" stroke="#222" stroke-width="2"/>
<path d="M42 70h16" stroke="#222" stroke-width="2" fill="none" stroke-linecap="round"/>
<path d="M44 76c2 2 10 2 12 0" stroke="#222" stroke-width="1.8" fill="none" stroke-linecap="round"/>
</svg>